<?xml version="1.0" encoding="UTF-8"?>
<!DOCTYPE svg PUBLIC "-//W3C//DTD SVG 1.1//EN" "http://www.w3.org/Graphics/SVG/1.1/DTD/svg11.dtd">
<!-- Creator: CorelDRAW 2020 (64-Bit) -->
<svg xmlns="http://www.w3.org/2000/svg" xml:space="preserve" width="200mm" height="50mm" version="1.1" style="shape-rendering:geometricPrecision; text-rendering:geometricPrecision; image-rendering:optimizeQuality; fill-rule:evenodd; clip-rule:evenodd"
viewBox="0 0 20000 5000"
 xmlns:xlink="http://www.w3.org/1999/xlink"
 xmlns:xodm="http://www.corel.com/coreldraw/odm/2003">
 <defs>
  <style type="text/css">
   <![CDATA[
    .fil1 {fill:#1D4526}
    .fil4 {fill:#51351D}
    .fil0 {fill:#63B39C}
    .fil11 {fill:#73BA9E}
    .fil14 {fill:#74BBA2}
    .fil13 {fill:#C47314}
    .fil6 {fill:#D47313}
    .fil8 {fill:#DA7E15}
    .fil2 {fill:#DD8419}
    .fil9 {fill:#EA9B1D}
    .fil5 {fill:#F2AE32}
    .fil7 {fill:#F3B334}
    .fil3 {fill:#F49B23}
    .fil12 {fill:#F5E7C9}
    .fil10 {fill:#FAEACA}
   ]]>
  </style>
 </defs>
 <g id="Слой_x0020_1">
  <metadata id="CorelCorpID_0Corel-Layer"/>
  <path class="fil0" d="M1118.77 1864.21c1.91,-1.98 4.37,-7.91 5.14,-6.38 0.34,0.69 65.7,-142.69 197.56,-143.39 103.04,-0.55 198,73.56 184.13,173.27 84.03,-44.29 128.17,0.95 135.15,82.5l-737.91 -0.88c12.84,-108.29 99.73,-155.07 215.93,-105.12zm712.37 -708.25c11.02,-47.07 43.15,-63.72 68.41,-89.83 27.8,-28.74 27.3,-64.31 55.88,-103.04 166.66,-225.84 528.1,-134.61 561.43,132.76 211.91,-107.86 334.02,68.31 309.29,156.47l-1317.84 0c8.03,-110.09 115.51,-173.15 234.37,-133.87l78.09 33.6c2,-2.55 6.84,2.79 10.37,3.91zm-1603.76 1734.53c182.48,-62.18 453.08,-152.78 645.85,-164.19 155.82,-9.22 517.1,103.15 654.21,158.48 -4.38,-69.47 10.76,-77.67 12.83,-132.75 1.9,-50.48 -26.56,-78.9 19.41,-112.1 94.24,-68.07 75.83,-29.91 124.6,-179.22 -49.07,14.01 -26.6,12.18 -72.79,33.8 -39.63,18.56 -35.54,16.54 -81.7,22.36 2.43,-1.91 6.41,-7.16 7.77,-5.17l50.75 -37.55c8.26,-7.69 13.13,-13.5 20.66,-20.31 140.15,-126.76 94.29,-280.88 186.25,-408.22 18.5,-25.62 27.29,-26.04 44.95,-45.05 45.13,-48.57 83.31,-85.3 154.36,-119.94 125.45,-61.17 109.44,-92.2 187.87,-186.44 69.8,-83.86 148.09,-76 264.64,-19.86 120.71,58.14 151.87,-73.72 307.97,0.7 33.52,15.99 57.1,50.82 88.89,92.12 10.94,14.21 23.29,38.05 35.61,54.7 33.88,45.84 56.77,63.57 99.3,93.34 62.3,43.62 6.8,18.96 83.97,68.41 1.86,1.19 4.4,2.85 6.23,4.06 1.81,1.2 4.18,3.05 5.96,4.26 24.02,16.43 12.2,20.16 85.94,36.21 -23.11,-188.32 -48.38,-289.86 5.68,-476.61 42.63,-147.26 127.69,-288.77 230.43,-405.59l9.48 -10.73c49.1,-57.82 22.28,-19 84.36,-76.81 396.02,-368.82 982.62,-443.07 1496.85,-171.62 172.01,90.8 330.03,244.51 416.85,411.56 26.18,50.38 83.02,128.7 87.27,189.19 185.09,-84.42 239.48,-74.79 356.59,25.57 25.03,21.46 2.19,-6.8 25.28,24.73 29.02,39.63 38.33,92.9 35.93,143.92 115.24,-60.81 146.74,-87.9 259.7,3.61 37.64,30.49 68.66,44.33 70.7,138.73l-720.9 1.97c3.99,72.54 3.46,143.52 -7.65,215.06 -10.41,66.97 -46.12,157.16 -49.87,203.53 57.38,24.12 113.64,58.8 172.86,84.26l177.78 89.84c405.12,199.5 738.98,294.71 1169.37,430.59 -14.63,-198.09 -80.97,-402.6 -145.3,-583.93 -29.34,-82.71 -145.15,-351.92 -197.12,-436.5 -15.66,-25.51 -18.08,-37.04 -35.74,-64.12 -149.52,-229.23 -158.83,-240.76 -310.46,-420.73 -1.32,-1.57 -3.32,-3.74 -4.68,-5.28l-19.48 -20.55c-40.39,-44.78 -38.54,-29.66 -67.41,-74.12l-192.09 -191.35c-21.16,-15.37 -35.44,-22.7 -56.54,-36.01 -72.01,-45.42 14.31,-7.57 -107.95,-85.28l-31.24 -28.73c-12.3,-12.45 -1.91,-3.85 -15.73,-14.62l-79.97 -53.13c-1.79,-1.18 -4.26,-2.92 -6.02,-4.13 -2.47,-1.71 -9.24,-6.87 -11.69,-8.61l-187.8 -118.95c-24.03,-14.45 -39.19,-23.44 -64.51,-38.21 -76.89,-44.84 -168.67,-86.77 -255.16,-125.87 -333.18,-150.6 -516.36,-200.27 -876.66,-274.31 -638.29,-131.18 -1481.43,-67.46 -2049.01,173.26 -108.34,45.95 -410.66,172.79 -519.06,242.42 -89.01,57.18 -106.55,59.95 -200.32,127.17l-113.27 80.22c-15.03,10.38 -17.88,8.94 -32.42,19.49l-99.36 82.65c-34.79,36.84 -139.86,99.91 -205.86,179.66 -61.45,74.24 -16.3,5.08 -94.74,97.44l-173.05 188.96c-339.06,449.76 -536.78,858.24 -601.6,1434.32z"/>
  <path class="fil1" d="M6964.02 3588.7c22.46,105.89 -153.45,649.08 -213.12,741.93l-9.18 35.56c-266.21,-18.69 -1183.64,-212.82 -1467.74,-284.74 -1536.93,-389.04 -1382.62,-392.88 -2894.39,52.85 -376.01,110.87 -631.86,193.84 -1022.95,288.71 -107.95,26.19 -254.7,57.56 -350,89.96 83.4,-19.22 272.14,-26.4 380.86,-43.89 366.66,-58.98 709.31,-156 1057.1,-268.46 352.5,-113.98 1066.17,-337.34 1453.61,-311.68 248.84,2.93 493.73,67.55 723.15,125.52 402.82,101.81 952.92,252.4 1353.53,318.71 225.97,37.41 483.32,102.58 712.44,124.07 -24.69,80.62 -198.49,338.49 -246.25,389.98 -460.66,-15.11 -952.77,-1.8 -1416.68,-1.15l-4108.39 -0.78c-36.2,-0.1 -143.06,14.64 -158.57,-12.39 -65.04,-65.05 -170.42,-247.68 -209.33,-321.88 -61.73,-117.73 -118.75,-239.62 -167.67,-374.57l-26.55 -81.15c47.55,-12.22 67.74,-20.36 115.63,-22.88l-17.84 -2.25c-43.67,-1.78 -25.04,0.48 -60.08,5.54l-46.45 0.61 -44.6 -139.21c-46.96,-192 -141.96,-726.01 -81.85,-902.02 0.76,-37.1 -5.97,-83.04 8.68,-104.6 64.82,-576.08 262.54,-984.56 601.6,-1434.32l173.05 -188.96c78.44,-92.36 33.29,-23.2 94.74,-97.44 66,-79.75 171.07,-142.82 205.86,-179.66l99.36 -82.65c14.54,-10.55 17.39,-9.11 32.42,-19.49l113.27 -80.22c93.77,-67.22 111.31,-69.99 200.32,-127.17 108.4,-69.63 410.72,-196.47 519.06,-242.42 567.58,-240.72 1410.72,-304.44 2049.01,-173.26 360.3,74.04 543.48,123.71 876.66,274.31 86.49,39.1 178.27,81.03 255.16,125.87 25.32,14.77 40.48,23.76 64.51,38.21l187.8 118.95c2.45,1.74 9.22,6.9 11.69,8.61 1.76,1.21 4.23,2.95 6.02,4.13l79.97 53.13c13.82,10.77 3.43,2.17 15.73,14.62l31.24 28.73c122.26,77.71 35.94,39.86 107.95,85.28 21.1,13.31 35.38,20.64 56.54,36.01l192.09 191.35c28.87,44.46 27.02,29.34 67.41,74.12l19.48 20.55c1.36,1.54 3.36,3.71 4.68,5.28 151.63,179.97 160.94,191.5 310.46,420.73 17.66,27.08 20.08,38.61 35.74,64.12 51.97,84.58 167.78,353.79 197.12,436.5 64.33,181.33 130.67,385.84 145.3,583.93l11.21 86.64c-40.41,-3.45 -77.53,-19.96 -98.08,-12.26l99.96 29.95c3,139.42 33.2,534.33 -30.69,635.04zm-344.2 1398.74l149.29 -217.99c49.41,-77.19 88.84,-154.32 140.14,-238.39 78.45,-128.59 162.2,-369.38 209.89,-530.87 284.88,-964.76 22.19,-2043.89 -659.59,-2795.84l-181.62 -192.15c-190.27,-193.31 -422.28,-346.92 -656.01,-493.71 -151.39,-95.08 -344.48,-174.11 -520.23,-251.84 -320.22,-141.6 -904.16,-258.41 -1298.93,-270.32 -1032.69,-31.13 -1935.79,273.21 -2556.47,751.88 -26.31,20.29 -26.22,22.59 -51.38,39.95l-352.8 315.78c-97.58,115.31 -149.28,156.82 -263.96,309.22 -730.71,971.01 -814.72,2338.86 -136.68,3355.77 187.32,280.94 76.61,218.56 559.91,218.37l2401.01 0.12c1068.39,1.29 2150.58,14.46 3217.43,0.02z"/>
  <path class="fil2" d="M380.44 4136.45c48.92,134.95 105.94,256.84 167.67,374.57 38.91,74.2 144.29,256.83 209.33,321.88l1247.03 -1.32c16,-18.18 1.92,-22.07 10.67,-34.68 38.88,10.14 2.45,11.36 21.35,34.45 251.79,-0.61 507.06,0.9 747.94,-4.43 93.7,-2.07 6.73,-19.06 136.07,-17.5 93.21,1.12 459.72,-15 513.24,-48.04 -66.4,-13.37 27.95,-1.38 -44.01,-21l-67.22 0.41c-54.71,4 -6.3,-27.31 -40.73,-5.8 -19.44,12.13 26.94,13.12 -72.73,13.35 -243.81,0.54 -128.06,-18.52 -190.78,-23.94 86.32,-2.54 586.63,-163.13 694.6,-237.34l86.77 -64.8c10.77,-9.41 129.56,-138.06 116.49,-174.93 -0.72,-2.02 -2.97,-7.76 -4.25,-9.65 -5.73,-8.45 14.26,2.28 -26.21,-20.28 -20.27,-11.3 -53.3,-29.14 -56.38,-32.2 -13.79,-30.55 -104.42,-66.78 -75.87,-177.25 8.94,-34.6 36.33,-54.42 61.38,-70.74 31.04,-20.23 63.9,-29.09 83.41,-48.27 -387.44,-25.66 -1101.11,197.7 -1453.61,311.68 -347.79,112.46 -690.44,209.48 -1057.1,268.46 -108.72,17.49 -297.46,24.67 -380.86,43.89 95.3,-32.4 242.05,-63.77 350,-89.96 391.09,-94.87 646.94,-177.84 1022.95,-288.71 1511.77,-445.73 1357.46,-441.89 2894.39,-52.85 284.1,71.92 1201.53,266.05 1467.74,284.74l9.18 -35.56c-8.15,-15.14 -6.25,7.19 -0.82,-20.63 0.49,-2.46 4.62,-14.6 6.71,-20.15 24.49,-65.22 108.63,-264.12 92.38,-302.17 -19.15,25.85 -22.55,83.68 -42.46,99.71 -5.61,4.52 -14.74,7.08 -26.34,11.5 -56.96,21.68 -25.06,5.73 -16.82,62.04 -1.3,0.57 -3.76,-0.83 -4.23,-0.91 -46.99,-7.33 -12.45,5.96 -35.03,17.63 -88.18,45.58 -88.31,44.37 -112.21,23.6 -1.14,-0.99 -3.59,-2.84 -4.37,-6.02 -0.8,-3.26 -2.52,-4.35 -3.98,-6.43 -29.64,26.71 -30.29,17.11 -69.78,5.81l-234.89 -67.72c-96.26,-32.3 -198.98,-67.28 -300.1,-103.68 -346.68,-124.81 -578.48,-256.7 -898.24,-399.7l-212.88 -77.36c-108.64,-47.31 -378.93,-124.24 -246.62,-257.52 1.49,-1.51 3.81,-3.39 5.27,-4.88 45.49,-46.54 74.1,-60.43 143.1,-89.28 -197.79,33.21 -336.87,111.63 -517.78,156.42 -174.12,43.12 -340.96,103.19 -509.96,155.97 -256.35,80.05 -815.79,178.08 -1100.98,236.85 -279.32,57.56 -859.06,148.18 -1154.11,190.44 -196.93,28.2 -386.96,68.92 -581.19,92.42 -83.93,10.15 -207.17,28.87 -285.37,49.59 -34.01,9.01 -234.59,42.14 -259.76,60.29z"/>
  <path class="fil3" d="M3160.91 2028.13c174.78,30.62 182.55,-33.57 223.01,-163.69 63.53,-204.35 97.79,-182.92 103.07,-243.32 1.03,-11.83 0.72,-30.82 2.24,-44.5 192.26,-22.42 172.28,39.63 285.9,36.95 234.28,-5.54 183.39,133.25 171.49,142.6 -58.32,23.48 -65.04,-10.24 -143.85,23.66 -33.94,14.6 -79.65,24 -112.88,42.82 -63.32,35.85 -63.61,139.09 -96.23,207.62 -27.88,58.59 -62.6,139.12 -117.97,192.95 -73.45,71.41 -158.54,74.55 -214.64,94.13 34.62,26.31 44.54,55.08 69.96,86.66 104.67,130.04 219.17,191.71 238.27,226.09 141.91,-59.72 314.7,-124.61 449.2,-198.02 126.89,-69.26 300.1,-134.12 433.97,-195.2 395.91,-180.62 635.61,-169.13 1009.16,7.76 3.75,-46.37 39.46,-136.56 49.87,-203.53 11.11,-71.54 11.64,-142.52 7.65,-215.06l-538.4 -1.99c17.1,-85.03 45.07,-121.82 128.17,-146.44 95.39,-28.27 149.36,2.17 237.22,23.86 18.78,-119.62 65.7,-155.94 145.71,-213.96 -4.25,-60.49 -61.09,-138.81 -87.27,-189.19 -86.82,-167.05 -244.84,-320.76 -416.85,-411.56 -514.23,-271.45 -1100.83,-197.2 -1496.85,171.62 -62.08,57.81 -35.26,18.99 -84.36,76.81l-9.48 10.73c-102.74,116.82 -187.8,258.33 -230.43,405.59 -54.06,186.75 -28.79,288.29 -5.68,476.61z"/>
  <path class="fil4" d="M2625.76 2968.84c4.33,-72.29 19.93,-70.12 49.73,-121.84 26.77,-46.45 13.98,-92.3 34.81,-141.52 12.51,-29.58 117.15,-211.32 133.34,-229.56 46.68,25.72 5.42,5.82 57.46,65 1.36,1.55 3.37,3.73 4.76,5.26l54.22 66.76c50.15,57.92 120.26,126.34 129.8,208.39 -110.62,51.35 -331.84,118.67 -464.12,147.51zm-513.13 94.86l-403.59 -122.91c-40.97,-14.52 -91.71,-34.06 -127.98,-44.49 56.84,-230.95 32.22,-116.96 100.74,-203.88 31.4,-39.84 4.24,-32.19 48.54,-61.84 22.35,-14.96 42.04,-22.13 63.58,-39.22 21.94,-17.41 34.93,-35.47 55.49,-55.54 17.06,-16.64 38.65,-35.43 53.61,-57.24 11.85,-17.29 21.65,-47.78 37.42,-69.87 96.92,87.76 13.79,320.6 11.02,354.52 -3.44,41.99 34.93,66.08 81.54,145.21 27.44,46.59 64.1,110.15 79.63,155.26zm81.25 7.14c-52.29,-146.83 -146.72,-143.3 -115.81,-376.72 16.9,-127.58 68.97,-95.32 135.85,-368.63 47.27,2.13 137.37,40.47 197.23,53.24 87.19,18.59 155.72,22.18 241.99,29.65 -8.67,212.06 -89.25,331.5 -78.82,458.46 11.87,144.5 -12.45,118.37 -134.93,151.28 -69.09,18.56 -171.52,39.45 -245.51,52.72zm967.03 -1042.71c-73.74,-16.05 -61.92,-19.78 -85.94,-36.21 -1.78,-1.21 -4.15,-3.06 -5.96,-4.26 -1.83,-1.21 -4.37,-2.87 -6.23,-4.06 -77.17,-49.45 -21.67,-24.79 -83.97,-68.41 -42.53,-29.77 -65.42,-47.5 -99.3,-93.34 -12.32,-16.65 -24.67,-40.49 -35.61,-54.7 -31.79,-41.3 -55.37,-76.13 -88.89,-92.12 -156.1,-74.42 -187.26,57.44 -307.97,-0.7 -116.55,-56.14 -194.84,-64 -264.64,19.86 -78.43,94.24 -62.42,125.27 -187.87,186.44 -71.05,34.64 -109.23,71.37 -154.36,119.94 -17.66,19.01 -26.45,19.43 -44.95,45.05 -91.96,127.34 -46.1,281.46 -186.25,408.22 -7.53,6.81 -12.4,12.62 -20.66,20.31l-50.75 37.55c-1.36,-1.99 -5.34,3.26 -7.77,5.17 46.16,-5.82 42.07,-3.8 81.7,-22.36 46.19,-21.62 23.72,-19.79 72.79,-33.8 -48.77,149.31 -30.36,111.15 -124.6,179.22 -45.97,33.2 -17.51,61.62 -19.41,112.1 -2.07,55.08 -17.21,63.28 -12.83,132.75 -137.11,-55.33 -498.39,-167.7 -654.21,-158.48 -192.77,11.41 -463.37,102.01 -645.85,164.19 -14.65,21.56 -7.92,67.5 -8.68,104.6 47.22,-24.56 95.03,-27.95 147.53,-46.09 53.03,-18.32 99.14,-33.43 155.05,-52.97 97.51,-34.07 241.34,-67.24 348.9,-68.34 249.26,5.97 408.52,81.69 637.96,149.89 194.43,57.8 394.45,125.1 592.98,186.38 202.88,62.6 405.19,108.29 607.87,172.69 192.53,61.18 421.79,126.84 619.99,174.52 -206.82,99.61 -2819.93,474.12 -2877.3,519l17.84 2.25c-47.89,2.52 -68.08,10.66 -115.63,22.88l26.55 81.15c25.17,-18.15 225.75,-51.28 259.76,-60.29 78.2,-20.72 201.44,-39.44 285.37,-49.59 194.23,-23.5 384.26,-64.22 581.19,-92.42 295.05,-42.26 874.79,-132.88 1154.11,-190.44 285.19,-58.77 844.63,-156.8 1100.98,-236.85 169,-52.78 335.84,-112.85 509.96,-155.97 180.91,-44.79 319.99,-123.21 517.78,-156.42 120.16,-48.69 267.25,-72.07 394.7,-125.37 104.64,-43.75 283.11,-151.97 175.72,-287.47 -20.8,23.41 -22.08,41.29 -44.07,68.79 -125.03,156.35 -427.67,207.28 -608.05,259.32 -373.35,107.71 -682.71,220.99 -1064.77,318.27 -31.7,8.07 -65.65,22.17 -97.57,28.57 -65.93,13.23 -327.89,-79.91 -400.95,-99.84 -109.17,-29.78 -277.57,-71.66 -389.16,-109.46 -133.93,-45.37 -263.27,-69.55 -398.18,-110.7l590.77 -160.29c60.24,-18.26 133.38,-52.22 187.58,-61.66l50.27 183.16 109.4 18.6c-10.13,-27.32 -70.14,-43.29 -98.71,-228.66 152.31,-40.97 295.39,-125.71 430.52,-173.63 142.81,-50.64 296.81,-140.38 421.3,-187.07 58.71,-22.02 144.87,-69.56 200.96,-97.03 113.56,-55.63 302.44,-128.55 426.69,-173.32 86.96,-31.33 157.88,-37.56 252.9,-56.48 267.55,0.07 486.76,140.17 694.32,234.7 101.01,46 200.94,99.26 307.04,146.01 81.69,35.99 240.51,112.35 328.6,133.61 91.71,46.73 532.48,193.85 635.85,209.19 20.55,-7.7 57.67,8.81 98.08,12.26l-11.21 -86.64c-430.39,-135.88 -764.25,-231.09 -1169.37,-430.59l-177.78 -89.84c-59.22,-25.46 -115.48,-60.14 -172.86,-84.26 -373.55,-176.89 -613.25,-188.38 -1009.16,-7.76 -133.87,61.08 -307.08,125.94 -433.97,195.2 -134.5,73.41 -307.29,138.3 -449.2,198.02 -19.09,16.09 -352.85,154.39 -389.86,161.25 12.88,-142.67 -139.22,-268.89 -170.03,-442.05 73.39,-44.52 152.91,-46.97 251.66,-31.95 56.1,-19.58 141.19,-22.72 214.64,-94.13 55.37,-53.83 90.09,-134.36 117.97,-192.95 32.62,-68.53 32.91,-171.77 96.23,-207.62 33.23,-18.82 78.94,-28.22 112.88,-42.82 78.81,-33.9 85.53,-0.18 143.85,-23.66 11.9,-9.35 62.79,-148.14 -171.49,-142.6 -113.62,2.68 -93.64,-59.37 -285.9,-36.95 -1.52,13.68 -1.21,32.67 -2.24,44.5 -5.28,60.4 -39.54,38.97 -103.07,243.32 -40.46,130.12 -48.23,194.31 -223.01,163.69z"/>
  <path class="fil5" d="M5360.01 2781.63c107.39,135.5 -71.08,243.72 -175.72,287.47 -127.45,53.3 -274.54,76.68 -394.7,125.37 -69,28.85 -97.61,42.74 -143.1,89.28 -1.46,1.49 -3.78,3.37 -5.27,4.88 -132.31,133.28 137.98,210.21 246.62,257.52l212.88 77.36c319.76,143 551.56,274.89 898.24,399.7 101.12,36.4 203.84,71.38 300.1,103.68l234.89 67.72c39.49,11.3 40.14,20.9 69.78,-5.81 1.46,2.08 3.18,3.17 3.98,6.43 0.78,3.18 3.23,5.03 4.37,6.02 23.9,20.77 24.03,21.98 112.21,-23.6 22.58,-11.67 -11.96,-24.96 35.03,-17.63 0.47,0.08 2.93,1.48 4.23,0.91 -8.24,-56.31 -40.14,-40.36 16.82,-62.04 11.6,-4.42 20.73,-6.98 26.34,-11.5 19.91,-16.03 23.31,-73.86 42.46,-99.71 16.25,38.05 -67.89,236.95 -92.38,302.17 -2.09,5.55 -6.22,17.69 -6.71,20.15 -5.43,27.82 -7.33,5.49 0.82,20.63 59.67,-92.85 235.58,-636.04 213.12,-741.93 -3.58,-15.23 -17.57,-12.54 2.48,-12.48l-10.67 38.29c-42.07,12.78 -14.9,6.03 -58.85,3.01 -16.63,-1.14 -41.3,-3.33 -58.94,-5.31 -40.96,-4.61 -70.73,-13.59 -115.58,-23.68 -170.36,-38.31 -338.92,-99.15 -489.54,-176l-86.53 -47.13c-12.6,-6.67 -12.81,-7.51 -18.49,-11.36l-120.25 -76.15c-1.87,-1.07 -4.5,-2.58 -6.38,-3.64l-120.6 -92.79c-45.15,-36.97 -59.99,-39.86 -112.12,-91.41 -10.59,-10.47 -2.01,0.06 -15.04,-15.98 -26.75,-32.9 -163.26,-196.32 -157.05,-168.87 -0.45,-25.58 19.06,6.13 54.64,32.3l560.39 310.43c29.41,12.39 27.12,12.96 59.18,24.64 -1.59,-2.94 -4.47,-10.17 -5.73,-8.35 -0.15,0.21 -11.65,-25.37 -61.03,-42.66l26.34 -22.36c1.79,0.3 3.9,0.72 4.54,2.76l46.68 26.49c-10.3,-27.37 -7,-38.5 -36.13,-54.81 13.58,-4.28 -12.47,23.36 15.65,-4.73 10.36,-10.34 0.51,-32.97 11.94,-55.25 16.6,18.37 15.43,19.79 37.19,18.14l60.03 -10.74c-53.78,-57.05 -182.06,-79.5 -254.94,-131.74 -47.96,-34.38 -121.09,-54.64 -160.64,-96.21l-150.47 -103.35c-1.33,-0.99 -16.11,-10.83 -18.93,-12.33l-79.63 -52.58c-4.03,-2.7 -16.41,-8.87 -19.97,-10.71l-360.19 -214.63c-77.81,-50.33 -163.17,-115.09 -247.67,-150.16 15.48,6.93 11.43,-9.09 53.95,10.43 19.04,8.74 46.4,24.19 69.86,33.88l382.86 182.96c85.26,36.05 446.31,241.54 512.88,265.22l30.89 9.38c21.26,7.5 38.12,16.07 59.33,25.22 -2.19,-3.36 -5.6,-11.58 -7.34,-9.66 -0.07,0.08 -19.77,-34.47 -80.11,-56.39 54.39,-23.4 21.14,-34.93 -10.45,-48.92 2.8,-0.21 6.81,1.11 8.41,0.62l15.25 -5.93c2.22,-0.84 6.77,-2.67 9.99,-4.28 -18.63,-31.67 -3.52,-21.83 -36.61,-34.86 13.98,-0.75 40.83,-26.66 26.24,-32.28 23,8.53 70.25,38.51 98.95,41.37 79.54,7.92 22.15,9.86 47.09,-11.59 -88.09,-21.26 -246.91,-97.62 -328.6,-133.61 -106.1,-46.75 -206.03,-100.01 -307.04,-146.01 -207.56,-94.53 -426.77,-234.63 -694.32,-234.7 -0.07,60.44 -86.88,93.12 -24.96,207.87 19.65,36.4 96.03,110.81 139.59,134.96 18.77,10.41 27.87,15.35 45.9,26.05l86.74 55.41c52.87,30.82 19.04,0.76 69.28,43.56 43.78,37.29 37.36,15.78 92.74,80.63 10.57,12.39 15.55,20.43 21.78,32.95z"/>
  <path class="fil5" d="M3829.29 4185.2c99.76,17.64 278.18,110.31 361.95,167.98 4.88,3.35 17.81,10.79 19.32,11.89 20.25,14.86 29.66,24.73 32.32,74.72 4.14,77.43 -42.2,98.21 -86.95,130.12 -110.84,79.04 -168.2,96.36 -323.23,130.11 -107.61,23.43 -297.54,63.26 -398.96,61.36 -53.52,33.04 -420.03,49.16 -513.24,48.04 -129.34,-1.56 -42.37,15.43 -136.07,17.5 -240.88,5.33 -496.15,3.82 -747.94,4.43 -18.9,-23.09 17.53,-24.31 -21.35,-34.45 -8.75,12.61 5.33,16.5 -10.67,34.68l-1247.03 1.32c15.51,27.03 122.37,12.29 158.57,12.39l4108.39 0.78c463.91,-0.65 956.02,-13.96 1416.68,1.15 47.76,-51.49 221.56,-309.36 246.25,-389.98 -229.12,-21.49 -486.47,-86.66 -712.44,-124.07 -400.61,-66.31 -950.71,-216.9 -1353.53,-318.71 -229.42,-57.97 -474.31,-122.59 -723.15,-125.52 -19.51,19.18 -52.37,28.04 -83.41,48.27 -25.05,16.32 -52.44,36.14 -61.38,70.74 -28.55,110.47 62.08,146.7 75.87,177.25z"/>
  <path class="fil6" d="M5360.01 2781.63c-6.23,-12.52 -11.21,-20.56 -21.78,-32.95 -55.38,-64.85 -48.96,-43.34 -92.74,-80.63 -50.24,-42.8 -16.41,-12.74 -69.28,-43.56l-86.74 -55.41c-18.03,-10.7 -27.13,-15.64 -45.9,-26.05 -43.56,-24.15 -119.94,-98.56 -139.59,-134.96 -61.92,-114.75 24.89,-147.43 24.96,-207.87 -95.02,18.92 -165.94,25.15 -252.9,56.48 -124.25,44.77 -313.13,117.69 -426.69,173.32 -56.09,27.47 -142.25,75.01 -200.96,97.03 -124.49,46.69 -278.49,136.43 -421.3,187.07 -135.13,47.92 -278.21,132.66 -430.52,173.63 28.57,185.37 88.58,201.34 98.71,228.66l-109.4 -18.6 -50.27 -183.16c-54.2,9.44 -127.34,43.4 -187.58,61.66l-590.77 160.29c134.91,41.15 264.25,65.33 398.18,110.7 111.59,37.8 279.99,79.68 389.16,109.46 73.06,19.93 335.02,113.07 400.95,99.84 31.92,-6.4 65.87,-20.5 97.57,-28.57 382.06,-97.28 691.42,-210.56 1064.77,-318.27 180.38,-52.04 483.02,-102.97 608.05,-259.32 21.99,-27.5 23.27,-45.38 44.07,-68.79z"/>
  <path class="fil7" d="M300.55 3897.11l44.6 139.21 46.45 -0.61c35.04,-5.06 16.41,-7.32 60.08,-5.54 57.37,-44.88 2670.48,-419.39 2877.3,-519 -198.2,-47.68 -427.46,-113.34 -619.99,-174.52 -202.68,-64.4 -404.99,-110.09 -607.87,-172.69 -198.53,-61.28 -398.55,-128.58 -592.98,-186.38 -229.44,-68.2 -388.7,-143.92 -637.96,-149.89 -22.35,38.79 -65.92,56.26 -67.31,108.73 -1.44,54.69 21.29,101.35 49.53,131.67l452.55 215.69c32.91,15.07 103.1,43.38 129.73,66.28l62.22 59.58c25.73,30.24 24.07,101.38 17.21,128.04 -11.48,44.54 -45.59,66.68 -85.58,96.75l-122.74 71.95c-101.54,44.62 -177.73,76.06 -295.48,99.71 -201.08,40.38 -396.5,64.83 -606.1,71.63 -70.53,2.28 -75.83,-2.49 -103.66,19.39z"/>
  <path class="fil8" d="M218.7 2995.09c-60.11,176.01 34.89,710.02 81.85,902.02 27.83,-21.88 33.13,-17.11 103.66,-19.39 209.6,-6.8 405.02,-31.25 606.1,-71.63 117.75,-23.65 193.94,-55.09 295.48,-99.71l122.74 -71.95c39.99,-30.07 74.1,-52.21 85.58,-96.75 6.86,-26.66 8.52,-97.8 -17.21,-128.04l-62.22 -59.58c-26.63,-22.9 -96.82,-51.21 -129.73,-66.28l-452.55 -215.69c-28.24,-30.32 -50.97,-76.98 -49.53,-131.67 1.39,-52.47 44.96,-69.94 67.31,-108.73 -107.56,1.1 -251.39,34.27 -348.9,68.34 -55.91,19.54 -102.02,34.65 -155.05,52.97 -52.5,18.14 -100.31,21.53 -147.53,46.09z"/>
  <path class="fil9" d="M6964.02 3588.7c63.89,-100.71 33.69,-495.62 30.69,-635.04l-99.96 -29.95c-103.37,-15.34 -544.14,-162.46 -635.85,-209.19 -24.94,21.45 32.45,19.51 -47.09,11.59 -28.7,-2.86 -75.95,-32.84 -98.95,-41.37 14.59,5.62 -12.26,31.53 -26.24,32.28 33.09,13.03 17.98,3.19 36.61,34.86 -3.22,1.61 -7.77,3.44 -9.99,4.28l-15.25 5.93c-1.6,0.49 -5.61,-0.83 -8.41,-0.62 31.59,13.99 64.84,25.52 10.45,48.92 60.34,21.92 80.04,56.47 80.11,56.39 1.74,-1.92 5.15,6.3 7.34,9.66 -21.21,-9.15 -38.07,-17.72 -59.33,-25.22l-30.89 -9.38c-66.57,-23.68 -427.62,-229.17 -512.88,-265.22l-382.86 -182.96c-23.46,-9.69 -50.82,-25.14 -69.86,-33.88 -42.52,-19.52 -38.47,-3.5 -53.95,-10.43 84.5,35.07 169.86,99.83 247.67,150.16l360.19 214.63c3.56,1.84 15.94,8.01 19.97,10.71l79.63 52.58c2.82,1.5 17.6,11.34 18.93,12.33l150.47 103.35c39.55,41.57 112.68,61.83 160.64,96.21 72.88,52.24 201.16,74.69 254.94,131.74l-60.03 10.74c-21.76,1.65 -20.59,0.23 -37.19,-18.14 -11.43,22.28 -1.58,44.91 -11.94,55.25 -28.12,28.09 -2.07,0.45 -15.65,4.73 29.13,16.31 25.83,27.44 36.13,54.81l-46.68 -26.49c-0.64,-2.04 -2.75,-2.46 -4.54,-2.76l-26.34 22.36c49.38,17.29 60.88,42.87 61.03,42.66 1.26,-1.82 4.14,5.41 5.73,8.35 -32.06,-11.68 -29.77,-12.25 -59.18,-24.64l-560.39 -310.43c-35.58,-26.17 -55.09,-57.88 -54.64,-32.3 -6.21,-27.45 130.3,135.97 157.05,168.87 13.03,16.04 4.45,5.51 15.04,15.98 52.13,51.55 66.97,54.44 112.12,91.41l120.6 92.79c1.88,1.06 4.51,2.57 6.38,3.64l120.25 76.15c5.68,3.85 5.89,4.69 18.49,11.36l86.53 47.13c150.62,76.85 319.18,137.69 489.54,176 44.85,10.09 74.62,19.07 115.58,23.68 17.64,1.98 42.31,4.17 58.94,5.31 43.95,3.02 16.78,9.77 58.85,-3.01l10.67 -38.29c-20.05,-0.06 -6.06,-2.75 -2.48,12.48z"/>
  <path class="fil2" d="M18839.48 3907.22c-73.1,-153.3 -360.09,-733.97 -447.24,-842.59l-491.73 -0.49c3.03,144.13 -5.1,57.55 103.35,115.95 99.99,53.85 46.13,381.29 36.81,529.5 -8.34,132.55 -13.67,257.98 -23.65,392.04 -16.35,219.33 -33.29,139.25 -178.62,222.78l8.31 83.22c89.1,2.67 176.92,2.05 265.99,2.43 78.96,0.34 189.7,16.08 256.75,-25.61 -13.34,-101.97 10.36,-48.05 -73.35,-86.88 -127.35,-59.06 -91.89,-147.8 -89.4,-335.82 2.25,-169.84 8.96,-357.21 13.92,-532.95 56.22,66.95 179.97,359.21 232.14,461.36 76.3,149.4 149.64,333.97 239.42,457.05l101.88 -2.62c105.58,-109.97 396.14,-871.22 462.2,-942.59 7.77,188.84 12.99,371.83 23.71,558.54 31.62,551.01 -161.12,200.37 -150.19,438.38 94.86,20.34 578.94,15.82 698,9.12 -3.61,-146.68 -2.24,-59.31 -114.22,-127.91 -51.3,-31.44 -57.79,-68.54 -69.42,-142.44l-64.99 -789.41c-9.18,-304.88 177.24,-86.67 149.01,-273.81 -87.16,-24.51 -377.6,-14.9 -479.85,-6.9 -80.28,90.13 -326.54,720.8 -408.83,839.65z"/>
  <path class="fil2" d="M8377.24 3627.25c17.28,-395.18 -74.22,-523.46 163.14,-604.82l-19.6 -81.76c-77.77,-26.52 -585.7,-12.79 -676.46,2.16 -19.14,179.91 150.58,-0.1 169.89,263.81l3.62 848.36c0.14,273.03 -79.32,218.55 -173.19,272.6l16.19 72.54 609.78 10.59c77.32,-3.99 81.05,-9.96 76.53,-81.43 -204.55,-112.95 -162.98,-3.11 -168.57,-525.5l117.83 -82.64c38.74,106.85 274.93,390.97 356.75,505.97 57.72,81.13 155.21,175.44 264.22,184.9 71.94,6.25 377.38,3.67 439.57,-11.48l3.29 -70.98c-103.14,-77.08 -156.13,-11.99 -274.28,-145.44l-521.79 -678.5c82.63,-108.91 78.91,-75.01 142.51,-139.52l226.36 -204.61c26.75,-19.92 45.4,-29.34 80.89,-53.26 73.16,-49.32 93.69,-52.25 185.49,-83.63l-4.67 -101.43 -568.35 13.91c-38.04,98.29 6.44,85.35 95.52,124.93 -15.85,99.61 -184.29,224.21 -259.4,303.48l-208.08 206.03c-22.5,18.92 -58.16,40.29 -77.19,55.72z"/>
  <path class="fil2" d="M11794.34 3186.18c105,3.1 232.93,6.71 308.42,53.24 134.43,82.85 205.69,558.41 -306.03,499.62l-2.39 -552.86zm-470.28 -109.92c-2.7,-3.86 -9.6,3.23 -13.91,5.65 2.37,131.85 28.63,32.13 114.37,106.94 69.68,60.8 39.44,475.81 39.19,567.87 -0.36,130.2 7.29,274.43 -1.85,402.81 -17.93,251.78 -200.09,50.74 -162.16,240.61 67.85,19.53 614.39,18.34 684.69,0 29.26,-173.15 -122.37,-13.64 -176.31,-190.75 -25.33,-83.18 -9.67,-247.46 -16.81,-344.03 195.16,14.34 156.69,52.8 239.47,174.95 175.07,258.29 227.92,456.39 739.75,365.85l-49.58 -94.37c-154.45,-58.01 -125.01,-15.75 -263.74,-198.65 -52.31,-68.97 -172.03,-228.44 -191.8,-309.34 356.9,-150.83 362.9,-495.31 115.61,-658.92 -170.97,-113.11 -541.81,-80.8 -802.4,-81.01l-209.52 0.38c-133.92,18.09 101.46,-23.08 -30.75,6.89 -3.85,0.87 -11.54,8.99 -14.25,5.12z"/>
  <path class="fil2" d="M15246.47 3128.99c-19.59,-82.76 1.19,-64.46 -101.56,-66.91l-520.23 10.03 -3.28 74.62c120.46,48.92 149.29,19.41 147.68,248.65l-2.58 766.9c-16.68,218.37 -166.95,73.23 -140.99,225.77 69.04,39.22 406.06,21.85 499.95,23.57 17.66,0.32 72.16,0.5 87.13,-2.35 66.37,-12.62 19.43,5.42 61.21,-24.82 -9.29,-178.43 -163.34,51.96 -165.76,-297.85 -1.05,-151.98 -22.44,-199.83 128.82,-311.78 77.85,140.04 195.51,334.66 293.93,464.52 61.91,81.7 89.75,155.7 228.56,168.54 81.95,7.58 304.93,3.81 378.42,-5.15l1.9 -85c-157.09,-54.83 -138.39,-37.1 -228.19,-137.5 -146.34,-163.63 -361.78,-494.05 -450.27,-589.93 31,-60.98 135.33,-157.32 186.96,-210.72 24.93,-25.79 36.89,-45.95 61.4,-71.53 129.82,-135.49 338.82,-137.27 276.79,-226.14 -4.1,-3.04 -9.81,-5.96 -13.57,-7.53l-394.08 -19.9c-32.64,0.83 -94.95,4.19 -113.51,27.43 -32.02,86.69 32.09,67.74 89.87,97.73 -1.61,120.01 -180.5,257.66 -264.6,348.18 -81.88,88.13 -66.9,89.2 -186.74,179.81 6.84,-123.72 -15.7,-442.45 33.25,-505.23 16.02,-20.56 32.7,-26.45 58.81,-40.47 52.94,-28.42 14.07,15.88 50.68,-32.94z"/>
  <path class="fil2" d="M12070.15 1501.91c223.68,6.08 366.33,41.79 360.1,260.99 -5.19,182.25 -145.71,284.25 -357.17,243.9l-2.93 -504.89zm-446.78 -99.17c14.89,163.63 134.25,-20.18 143.61,235.17 4.53,123.31 1.02,252.87 1.18,376.86 0.19,153.19 41.19,446.78 -63.13,505.92 -105.82,59.99 -91.6,-22.12 -91.11,110.62 97.22,14.32 535.64,16.59 626.04,-2.13l-2.09 -70.16c-177.16,-94.97 -162.25,54.88 -166.06,-434.02 242.87,14 169.11,172.76 358.72,379.48 116.03,126.51 227.4,158.37 425.12,146.27 110.42,-6.77 115.12,-2.9 114.11,-85.51 -133.19,-79.03 -113.8,35.44 -284.06,-195.26 -60.68,-82.23 -153.72,-214.23 -183.52,-314.97 263.48,-57.03 341.69,-455.87 90.37,-591.45 -219.43,-118.36 -576.08,-81.85 -839.86,-83.53 -136.14,-0.87 -79.2,3.68 -115.08,16.11 -3.92,1.36 -9.89,3.82 -14.24,6.6z"/>
  <path class="fil2" d="M16825.75 3076.59c-91.19,-31.79 -528.03,-14.49 -654.78,-11.34 -3.01,254.05 154.49,-115.1 155.89,377.58 1.58,562.17 -114.3,990.06 615.25,994.77 742.99,4.81 633.37,-506.23 637.58,-962.87 4.67,-506.92 161.31,-187.93 133,-392.82 -56.83,-33.09 -127.94,-19.42 -228.93,-20.73 -83.59,-1.09 -162.25,-3.68 -245.99,0.49 -0.46,146.05 4.69,59.24 108.87,127.51 88.22,57.82 46.22,424.2 44,583.23 -4.16,297.86 -4.01,506.52 -378.62,500.7 -331.69,-5.15 -346.98,-258.03 -346.84,-532.08 0.06,-134.39 -8.61,-291.54 1.4,-423.14 18.9,-248.52 180.89,-74 159.17,-241.3z"/>
  <path class="fil10" d="M1831.14 1155.96c-3.53,-1.12 -8.37,-6.46 -10.37,-3.91l-78.09 -33.6c-118.86,-39.28 -226.34,23.78 -234.37,133.87l1317.84 0c24.73,-88.16 -97.38,-264.33 -309.29,-156.47 -33.33,-267.37 -394.77,-358.6 -561.43,-132.76 -28.58,38.73 -28.08,74.3 -55.88,103.04 -25.26,26.11 -57.39,42.76 -68.41,89.83z"/>
  <path class="fil11" d="M2193.88 3070.84c73.99,-13.27 176.42,-34.16 245.51,-52.72 122.48,-32.91 146.8,-6.78 134.93,-151.28 -10.43,-126.96 70.15,-246.4 78.82,-458.46 -86.27,-7.47 -154.8,-11.06 -241.99,-29.65 -59.86,-12.77 -149.96,-51.11 -197.23,-53.24 -66.88,273.31 -118.95,241.05 -135.85,368.63 -30.91,233.42 63.52,229.89 115.81,376.72z"/>
  <path class="fil2" d="M18020.02 1487.97c588.99,-149.91 685.71,942.07 225.12,1036.11 -599.13,122.32 -698.84,-915.53 -225.12,-1036.11zm-12.88 -125.8c-205.11,33.52 -387.16,139.13 -460.32,238.73 -118.24,160.99 -172.47,287.22 -150.22,523.34 73.33,778.24 1610.23,706.97 1466.81,-233.53 -49.91,-327.33 -417.65,-600.22 -856.27,-528.54z"/>
  <path class="fil2" d="M13636.52 3406.8l188.52 468.68 -387.05 0.3 198.53 -468.98zm860.19 999.85c-2.13,-209.67 -70.84,59.82 -213.39,-300.92l-448.72 -1055.57c-108.61,1.56 -306.86,-16.44 -397.73,20.6 -16.53,112.86 -2.14,65.25 78.49,116.36 -6.53,81.18 -380.85,1027.03 -493.9,1096.95 -109.31,67.59 -106.34,-20.47 -101.68,124.77 120,6.49 402.16,16.88 508.86,-7.89 -9.89,-145.38 -8.15,-50.4 -112.92,-131.85 -18.51,-73.14 27.68,-183.57 60.24,-251.44l502.96 -2.64c38.23,62.32 88.26,157.14 72.09,243.88 -83.18,82.56 -110.08,10.9 -102.52,149.41l648.22 -1.66z"/>
  <path class="fil2" d="M10342.84 3392.27c8.87,125.26 151.18,360 182.11,484.8l-385.61 0.28 203.5 -485.08zm195.01 920.19l13.8 87.68c72.4,25.29 575.25,21.63 645.83,0 27.59,-135.99 -41.76,-49.72 -133.82,-133.21 -45.2,-40.99 -498.81,-1141.08 -531.86,-1216.79 -120.06,1.71 -323.2,-14.94 -397.61,31.77 -5.42,105.72 11.77,56.7 78.49,109.44 1.28,95.54 -314.93,824.21 -390.31,965.65 -138.58,260.04 -259.3,82.61 -188.92,248.21 98.82,8.45 415.23,17.97 495.78,-5.07 14.85,-120.82 -24.75,-71.48 -103.12,-124.11 -8.43,-104.41 17.23,-170.85 67.9,-259.42l486.57 -3.24c28.23,42.63 63.6,116.82 75.55,178.84 18.65,96.74 -26.56,103.1 -118.28,120.25z"/>
  <path class="fil2" d="M7812.66 2200.64l-113.53 1.77c2.1,71.88 13.81,129.11 24.27,199.29 5.82,39.05 14.29,160.45 47.26,185.18 284.22,109.42 629.1,113.61 842.33,-49.47 157.38,-120.37 205.63,-384.28 95.94,-533.92 -20.06,-27.36 -105.99,-107.21 -136.63,-128.63 -161.46,-112.87 -635.69,-214.31 -550.84,-466.08 45.46,-134.91 337.72,-187.69 494.46,45.55 62.22,92.59 21.25,105.25 167.53,108.58l-42.24 -328.94c-504.17,-256.29 -1032,25.2 -926.79,436.15 101.25,395.51 968.42,405.03 701.7,767.72 -71.42,97.12 -247.92,117.01 -386.55,49.83 -121.47,-58.87 -169.97,-141.19 -216.91,-287.03z"/>
  <path class="fil12" d="M5491.83 1487.52c-80.01,58.02 -126.93,94.34 -145.71,213.96 -87.86,-21.69 -141.83,-52.13 -237.22,-23.86 -83.1,24.62 -111.07,61.41 -128.17,146.44l538.4 1.99 720.9 -1.97c-2.04,-94.4 -33.06,-108.24 -70.7,-138.73 -112.96,-91.51 -144.46,-64.42 -259.7,-3.61 2.4,-51.02 -6.91,-104.29 -35.93,-143.92 -23.09,-31.53 -0.25,-3.27 -25.28,-24.73 -117.11,-100.36 -171.5,-109.99 -356.59,-25.57z"/>
  <path class="fil2" d="M8926.86 2560.14c2.9,119.81 98.72,75.28 467.86,74.47 187.73,-0.42 379,4.27 566.13,-1.78l82.5 -316.99c-192.55,-33.48 -66.88,70.15 -235.36,147.83 -117.89,54.36 -278.56,34.35 -417.32,35.35l-6.98 -434.85c131.03,2.93 277.07,-20.32 345.45,41.46 74.56,67.37 -28.16,39.64 84.88,60.11 2.84,-4.24 5.71,-15.76 6.61,-13.6 0.9,2.17 4.9,-9.89 5.98,-13.79 18.09,-64.81 8.8,-229.16 8.45,-299.51 -126.1,0.77 -43.91,-15.41 -95.63,47.31 -29.88,36.26 -13.03,37.66 -83.38,46.54 -58.36,7.37 -211.87,3.8 -271.28,-3.28l6.89 -403.32c65.62,-14.38 262.32,-13.21 330.22,7.16 154.46,46.35 40.77,134.18 220.08,137.95l-17.56 -289.59 -982.57 1.99c-1.88,191.67 125.46,17.55 136.06,238.04 5.29,110.24 18.35,809.89 -23.82,871.49 -42.15,61.6 -70.41,34.3 -127.21,67.01z"/>
  <path class="fil2" d="M13224.2 1904.92l2.03 408.11c4.44,176.32 4.7,189.07 -143.67,244.35 -0.16,110.97 16.56,75.73 347.93,75.84l671.95 1.44 85.73 -323.41c-145.06,-17.53 -96.37,39.36 -187.83,121.04 -98.5,87.96 -320.45,66.93 -465.54,66.45l-6.15 -436.74c139.49,6.21 275.44,-21.38 341.59,43.67 58.23,57.27 -26.7,41.24 84.38,58.69l12.23 -26.63c11.39,-43.07 18.82,-254.25 -12.23,-298.16 -157.86,13.46 41.91,94.46 -262.06,95.31l-164.92 -0.29 1.86 -416.81c224.11,9.37 378.66,-30.02 442.46,88.89 45.68,85.12 1.67,63.42 126.02,64.35l-21.93 -286.23 -979.69 -1.62c-0.15,137.76 -17.64,62.27 66.48,103.22 49.4,24.05 51.69,37.54 58.46,103.91 9.76,95.64 3.04,216.5 2.9,314.62z"/>
  <path class="fil13" d="M3433.74 4761.38c101.42,1.9 291.35,-37.93 398.96,-61.36 155.03,-33.75 212.39,-51.07 323.23,-130.11 44.75,-31.91 91.09,-52.69 86.95,-130.12 -2.66,-49.99 -12.07,-59.86 -32.32,-74.72 -1.51,-1.1 -14.44,-8.54 -19.32,-11.89 -83.77,-57.67 -262.19,-150.34 -361.95,-167.98 3.08,3.06 36.11,20.9 56.38,32.2 40.47,22.56 20.48,11.83 26.21,20.28 1.28,1.89 3.53,7.63 4.25,9.65 13.07,36.87 -105.72,165.52 -116.49,174.93l-86.77 64.8c-107.97,74.21 -608.28,234.8 -694.6,237.34 62.72,5.42 -53.03,24.48 190.78,23.94 99.67,-0.23 53.29,-1.22 72.73,-13.35 34.43,-21.51 -13.98,9.8 40.73,5.8l67.22 -0.41c71.96,19.62 -22.39,7.63 44.01,21z"/>
  <path class="fil2" d="M15789.07 2248.98l-10.17 69.57c14.98,168.82 19.67,260.44 114.18,294.63 633.97,229.32 1056.3,-324.09 646.83,-630.48 -182.09,-136.24 -536.35,-203.01 -461.9,-414.89 47.52,-135.26 309.51,-118.68 419.94,44.62 69.14,102.25 -3.72,99.39 136.06,103.67 4.75,-67.72 -5.79,-139.03 -18.75,-205.49 -17.96,-92.21 -29.64,-97.24 -127.53,-124.68 -599.62,-168.07 -877.07,337.61 -542.6,598.31 139.09,108.41 605.97,221.04 462.1,460.35 -62.3,103.65 -279.05,126.24 -399.16,31.33 -190.29,-150.35 -55.93,-229.49 -219,-226.94z"/>
  <path class="fil2" d="M11421.34 2278.29c-83.18,36.98 -201.55,351.63 -566.99,229.89 -429.18,-142.98 -375.81,-930.08 -0.81,-1017.06 409.74,-95.03 394.27,250.54 583.33,238.89 5.47,-62.02 -26.32,-159.86 -43.92,-222.2 -53.63,-189.95 -542.86,-162.08 -698.35,-115.95 -589.38,174.82 -716.48,1076.33 63.5,1251.62 159.2,35.78 371.51,20.1 521.19,-33.77 83.73,-30.14 122.34,-56.07 148.07,-135.82 59.46,-184.28 57.2,-163.61 -6.02,-195.6z"/>
  <path class="fil2" d="M14291.81 1710.52l85.04 3.28c121.34,-236.36 111.38,-182.93 430.12,-195.29l6.49 810.42c5.27,332.33 -157.79,117.5 -172.87,282.18 30.96,21.8 11.9,15.92 64.68,25.47 18.98,3.44 66.02,0.87 87.96,0.89 129.01,0.06 410.87,17.76 519.21,-11.4 -1.27,-162.1 -108.53,-20.75 -172.74,-153.35 -40.18,-82.97 -31.74,-863.11 -22.31,-950.09 300.99,-25.32 318.81,-3.56 423.28,191.21l83.85 -3.44 -71.8 -323.62 -1189.15 -2.97c-16.17,99.93 -77.23,223.98 -71.76,326.71z"/>
  <path class="fil2" d="M19008.26 1396.62c-2.05,112.4 -20.7,47.14 70.81,94.61 107.15,55.58 66.75,327.99 65.84,507.85 -0.64,125.62 2.11,252.06 0.42,377.38 -3.59,265.79 -144.32,77.13 -141.09,254.39l612.82 7.43c-2.94,-151.55 -13.91,-45.38 -118.21,-112.01 -84.06,-53.7 -52.62,-315.88 -51.05,-441.69 54.8,-3.71 198.01,-7.25 243.74,4.13 124.09,30.88 20.19,95 150.78,95.4 19.93,-40.89 16.1,-288.21 0,-336.57 -172.6,-15.81 56.36,128.08 -396.23,100.12l9.3 -412.17c4.47,-2.24 10.96,-8.64 13.27,-5.07l58.57 -12.09c114.17,-8.83 277.4,-14.05 333.69,86.92 42.57,76.37 -1.17,65.59 103.69,62.75 30.88,-64.77 0.45,-194.97 -4.05,-277.64 -209.47,-6.34 -839.43,-30.4 -952.3,6.26z"/>
  <path class="fil14" d="M2112.63 3063.7c-15.53,-45.11 -52.19,-108.67 -79.63,-155.26 -46.61,-79.13 -84.98,-103.22 -81.54,-145.21 2.77,-33.92 85.9,-266.76 -11.02,-354.52 -15.77,22.09 -25.57,52.58 -37.42,69.87 -14.96,21.81 -36.55,40.6 -53.61,57.24 -20.56,20.07 -33.55,38.13 -55.49,55.54 -21.54,17.09 -41.23,24.26 -63.58,39.22 -44.3,29.65 -17.14,22 -48.54,61.84 -68.52,86.92 -43.9,-27.07 -100.74,203.88 36.27,10.43 87.01,29.97 127.98,44.49l403.59 122.91z"/>
  <path class="fil11" d="M3569.28 2630.1c-19.1,-34.38 -133.6,-96.05 -238.27,-226.09 -25.42,-31.58 -35.34,-60.35 -69.96,-86.66 -98.75,-15.02 -178.27,-12.57 -251.66,31.95 30.81,173.16 182.91,299.38 170.03,442.05 37.01,-6.86 370.77,-145.16 389.86,-161.25z"/>
  <path class="fil10" d="M1118.77 1864.21c-116.2,-49.95 -203.09,-3.17 -215.93,105.12l737.91 0.88c-6.98,-81.55 -51.12,-126.79 -135.15,-82.5 13.87,-99.71 -81.09,-173.82 -184.13,-173.27 -131.86,0.7 -197.22,144.08 -197.56,143.39 -0.77,-1.53 -3.23,4.4 -5.14,6.38z"/>
  <path class="fil11" d="M2625.76 2968.84c132.28,-28.84 353.5,-96.16 464.12,-147.51 -9.54,-82.05 -79.65,-150.47 -129.8,-208.39l-54.22 -66.76c-1.39,-1.53 -3.4,-3.71 -4.76,-5.26 -52.04,-59.18 -10.78,-39.28 -57.46,-65 -16.19,18.24 -120.83,199.98 -133.34,229.56 -20.83,49.22 -8.04,95.07 -34.81,141.52 -29.8,51.72 -45.4,49.55 -49.73,121.84z"/>
 </g>
</svg>
